<mxfile host="app.diagrams.net" modified="2024-05-28T08:42:13.212Z" agent="Mozilla/5.0 (Windows NT 10.0; Win64; x64) AppleWebKit/537.36 (KHTML, like Gecko) Chrome/123.0.0.0 Safari/537.36" etag="ihR4IdeWhuZoZJYccXG-" version="24.4.9" type="google">
  <diagram name="爬蟲程式執行" id="13e1069c-82ec-6db2-03f1-153e76fe0fe0">
    <mxGraphModel grid="1" page="1" gridSize="10" guides="1" tooltips="1" connect="1" arrows="1" fold="1" pageScale="1" pageWidth="1100" pageHeight="850" background="none" math="0" shadow="0">
      <root>
        <mxCell id="0" />
        <mxCell id="1" parent="0" />
        <mxCell id="37B3_O0Yx8iWJ9PxHYTL-44" value="" style="endArrow=none;dashed=1;html=1;rounded=0;" edge="1" parent="1">
          <mxGeometry width="50" height="50" relative="1" as="geometry">
            <mxPoint x="-808" y="1690" as="sourcePoint" />
            <mxPoint x="-808" y="1010" as="targetPoint" />
          </mxGeometry>
        </mxCell>
        <mxCell id="37B3_O0Yx8iWJ9PxHYTL-45" value="：爬蟲系統" style="shape=umlLifeline;perimeter=lifelinePerimeter;whiteSpace=wrap;html=1;container=0;dropTarget=0;collapsible=0;recursiveResize=0;outlineConnect=0;portConstraint=eastwest;newEdgeStyle={&quot;edgeStyle&quot;:&quot;elbowEdgeStyle&quot;,&quot;elbow&quot;:&quot;vertical&quot;,&quot;curved&quot;:0,&quot;rounded&quot;:0};rounded=1;" vertex="1" parent="1">
          <mxGeometry x="-696.94" y="945.5" width="100" height="744.5" as="geometry" />
        </mxCell>
        <mxCell id="37B3_O0Yx8iWJ9PxHYTL-46" value="" style="html=1;points=[[0,0,0,0,5],[0,1,0,0,-5],[1,0,0,0,5],[1,1,0,0,-5]];perimeter=orthogonalPerimeter;outlineConnect=0;targetShapes=umlLifeline;portConstraint=eastwest;newEdgeStyle={&quot;curved&quot;:0,&quot;rounded&quot;:0};" vertex="1" parent="37B3_O0Yx8iWJ9PxHYTL-45">
          <mxGeometry x="45" y="82" width="10" height="578" as="geometry" />
        </mxCell>
        <mxCell id="37B3_O0Yx8iWJ9PxHYTL-50" value="：系統" style="shape=umlActor;verticalLabelPosition=bottom;verticalAlign=top;html=1;" vertex="1" parent="1">
          <mxGeometry x="-822.4200000000001" y="925" width="30" height="60" as="geometry" />
        </mxCell>
        <mxCell id="37B3_O0Yx8iWJ9PxHYTL-61" value="：伺服器" style="shape=umlLifeline;perimeter=lifelinePerimeter;whiteSpace=wrap;html=1;container=0;dropTarget=0;collapsible=0;recursiveResize=0;outlineConnect=0;portConstraint=eastwest;newEdgeStyle={&quot;edgeStyle&quot;:&quot;elbowEdgeStyle&quot;,&quot;elbow&quot;:&quot;vertical&quot;,&quot;curved&quot;:0,&quot;rounded&quot;:0};rounded=1;" vertex="1" parent="1">
          <mxGeometry x="-535.97" y="945.5" width="100" height="744.5" as="geometry" />
        </mxCell>
        <mxCell id="37B3_O0Yx8iWJ9PxHYTL-62" value="：資料庫" style="shape=umlLifeline;perimeter=lifelinePerimeter;whiteSpace=wrap;html=1;container=0;dropTarget=0;collapsible=0;recursiveResize=0;outlineConnect=0;portConstraint=eastwest;newEdgeStyle={&quot;edgeStyle&quot;:&quot;elbowEdgeStyle&quot;,&quot;elbow&quot;:&quot;vertical&quot;,&quot;curved&quot;:0,&quot;rounded&quot;:0};rounded=1;" vertex="1" parent="1">
          <mxGeometry x="-372.76" y="945.5" width="100" height="744.5" as="geometry" />
        </mxCell>
        <mxCell id="37B3_O0Yx8iWJ9PxHYTL-58" value="alt" style="shape=umlFrame;whiteSpace=wrap;html=1;pointerEvents=0;width=40;height=30;" vertex="1" parent="37B3_O0Yx8iWJ9PxHYTL-62">
          <mxGeometry x="-580" y="294.5" width="763.12" height="415.5" as="geometry" />
        </mxCell>
        <mxCell id="37B3_O0Yx8iWJ9PxHYTL-63" value="" style="html=1;points=[];perimeter=orthogonalPerimeter;outlineConnect=0;targetShapes=umlLifeline;portConstraint=eastwest;newEdgeStyle={&quot;edgeStyle&quot;:&quot;elbowEdgeStyle&quot;,&quot;elbow&quot;:&quot;vertical&quot;,&quot;curved&quot;:0,&quot;rounded&quot;:0};" vertex="1" parent="37B3_O0Yx8iWJ9PxHYTL-62">
          <mxGeometry x="45" y="108" width="10" height="482" as="geometry" />
        </mxCell>
        <mxCell id="37B3_O0Yx8iWJ9PxHYTL-56" value="&amp;nbsp;[資料完整]" style="text;html=1;strokeColor=none;fillColor=none;align=left;verticalAlign=middle;whiteSpace=wrap;rounded=0;" vertex="1" parent="37B3_O0Yx8iWJ9PxHYTL-62">
          <mxGeometry x="-531.7800000000001" y="484.25" width="120" height="30" as="geometry" />
        </mxCell>
        <mxCell id="37B3_O0Yx8iWJ9PxHYTL-64" value="發起啟動爬蟲請求()" style="html=1;verticalAlign=bottom;endArrow=block;edgeStyle=elbowEdgeStyle;elbow=horizontal;curved=0;rounded=0;align=right;" edge="1" parent="1">
          <mxGeometry x="0.7925" relative="1" as="geometry">
            <mxPoint x="-808.0007407407409" y="1042" as="sourcePoint" />
            <Array as="points">
              <mxPoint x="-737.2700000000001" y="1042" />
            </Array>
            <mxPoint x="-651.7900000000001" y="1042" as="targetPoint" />
            <mxPoint as="offset" />
          </mxGeometry>
        </mxCell>
        <mxCell id="37B3_O0Yx8iWJ9PxHYTL-79" value="&lt;font style=&quot;font-size: 16px;&quot;&gt;爬蟲程式執行循序圖&lt;/font&gt;" style="text;html=1;align=center;verticalAlign=middle;resizable=0;points=[];autosize=1;strokeColor=none;fillColor=none;" vertex="1" parent="1">
          <mxGeometry x="-660" y="878" width="170" height="30" as="geometry" />
        </mxCell>
        <mxCell id="37B3_O0Yx8iWJ9PxHYTL-80" value="" style="html=1;points=[];perimeter=orthogonalPerimeter;outlineConnect=0;targetShapes=umlLifeline;portConstraint=eastwest;newEdgeStyle={&quot;edgeStyle&quot;:&quot;elbowEdgeStyle&quot;,&quot;elbow&quot;:&quot;vertical&quot;,&quot;curved&quot;:0,&quot;rounded&quot;:0};" vertex="1" parent="1">
          <mxGeometry x="-490.97" y="1042" width="10" height="498" as="geometry" />
        </mxCell>
        <mxCell id="37B3_O0Yx8iWJ9PxHYTL-81" value="" style="edgeStyle=segmentEdgeStyle;endArrow=classic;html=1;curved=0;rounded=0;endSize=8;startSize=8;sourcePerimeterSpacing=0;targetPerimeterSpacing=0;" edge="1" parent="1" target="37B3_O0Yx8iWJ9PxHYTL-46">
          <mxGeometry width="100" relative="1" as="geometry">
            <mxPoint x="-640" y="1052" as="sourcePoint" />
            <mxPoint x="-540" y="1092" as="targetPoint" />
            <Array as="points">
              <mxPoint x="-590" y="1052" />
              <mxPoint x="-590" y="1072" />
            </Array>
          </mxGeometry>
        </mxCell>
        <mxCell id="37B3_O0Yx8iWJ9PxHYTL-86" value="" style="html=1;points=[[0,0,0,0,5],[0,1,0,0,-5],[1,0,0,0,5],[1,1,0,0,-5]];perimeter=orthogonalPerimeter;outlineConnect=0;targetShapes=umlLifeline;portConstraint=eastwest;newEdgeStyle={&quot;curved&quot;:0,&quot;rounded&quot;:0};" vertex="1" parent="1">
          <mxGeometry x="-812.42" y="1022.5" width="10" height="587.5" as="geometry" />
        </mxCell>
        <mxCell id="37B3_O0Yx8iWJ9PxHYTL-82" value="開始執行()" style="text;html=1;align=center;verticalAlign=middle;resizable=0;points=[];autosize=1;strokeColor=none;fillColor=none;" vertex="1" parent="1">
          <mxGeometry x="-589.73" y="1050" width="80" height="30" as="geometry" />
        </mxCell>
        <mxCell id="37B3_O0Yx8iWJ9PxHYTL-87" value="請求地圖資訊()" style="html=1;verticalAlign=bottom;endArrow=block;edgeStyle=elbowEdgeStyle;elbow=horizontal;curved=0;rounded=0;align=right;" edge="1" parent="1">
          <mxGeometry x="0.3333" relative="1" as="geometry">
            <mxPoint x="-640" y="1110" as="sourcePoint" />
            <Array as="points">
              <mxPoint x="-575.4800000000001" y="1110" />
            </Array>
            <mxPoint x="-490.0000000000001" y="1110" as="targetPoint" />
            <mxPoint as="offset" />
          </mxGeometry>
        </mxCell>
        <mxCell id="37B3_O0Yx8iWJ9PxHYTL-88" value="查詢地圖資訊()" style="html=1;verticalAlign=bottom;endArrow=block;edgeStyle=elbowEdgeStyle;elbow=horizontal;curved=0;rounded=0;align=right;" edge="1" parent="1">
          <mxGeometry x="0.7925" relative="1" as="geometry">
            <mxPoint x="-480.97" y="1130" as="sourcePoint" />
            <Array as="points">
              <mxPoint x="-416.45000000000016" y="1130" />
            </Array>
            <mxPoint x="-330.97000000000014" y="1130" as="targetPoint" />
            <mxPoint as="offset" />
          </mxGeometry>
        </mxCell>
        <mxCell id="37B3_O0Yx8iWJ9PxHYTL-89" value="傳回地圖資訊" style="html=1;verticalAlign=bottom;endArrow=none;edgeStyle=elbowEdgeStyle;elbow=vertical;curved=0;rounded=0;startArrow=open;startFill=0;endFill=0;dashed=1;" edge="1" parent="1">
          <mxGeometry x="0.0042" relative="1" as="geometry">
            <mxPoint x="-480.9700000000003" y="1160" as="sourcePoint" />
            <Array as="points">
              <mxPoint x="-415.9700000000001" y="1160" />
            </Array>
            <mxPoint x="-330.49000000000007" y="1160" as="targetPoint" />
            <mxPoint as="offset" />
          </mxGeometry>
        </mxCell>
        <mxCell id="37B3_O0Yx8iWJ9PxHYTL-90" value="傳送地圖資訊" style="html=1;verticalAlign=bottom;endArrow=none;edgeStyle=elbowEdgeStyle;elbow=vertical;curved=0;rounded=0;startArrow=open;startFill=0;endFill=0;dashed=1;" edge="1" parent="1">
          <mxGeometry x="0.0042" relative="1" as="geometry">
            <mxPoint x="-641.4500000000003" y="1170" as="sourcePoint" />
            <Array as="points">
              <mxPoint x="-576.45" y="1170" />
            </Array>
            <mxPoint x="-490.97" y="1170" as="targetPoint" />
            <mxPoint as="offset" />
          </mxGeometry>
        </mxCell>
        <mxCell id="37B3_O0Yx8iWJ9PxHYTL-91" value="" style="edgeStyle=segmentEdgeStyle;endArrow=classic;html=1;curved=0;rounded=0;endSize=8;startSize=8;sourcePerimeterSpacing=0;targetPerimeterSpacing=0;" edge="1" parent="1">
          <mxGeometry width="100" relative="1" as="geometry">
            <mxPoint x="-639.73" y="1195" as="sourcePoint" />
            <mxPoint x="-641.73" y="1215" as="targetPoint" />
            <Array as="points">
              <mxPoint x="-589.73" y="1195" />
              <mxPoint x="-589.73" y="1215" />
            </Array>
          </mxGeometry>
        </mxCell>
        <mxCell id="37B3_O0Yx8iWJ9PxHYTL-93" value="檢查資料完整()" style="text;html=1;align=center;verticalAlign=middle;resizable=0;points=[];autosize=1;strokeColor=none;fillColor=none;" vertex="1" parent="1">
          <mxGeometry x="-597.45" y="1190" width="100" height="30" as="geometry" />
        </mxCell>
        <mxCell id="37B3_O0Yx8iWJ9PxHYTL-96" value="" style="edgeStyle=segmentEdgeStyle;endArrow=classic;html=1;curved=0;rounded=0;endSize=8;startSize=8;sourcePerimeterSpacing=0;targetPerimeterSpacing=0;" edge="1" parent="1">
          <mxGeometry width="100" relative="1" as="geometry">
            <mxPoint x="-639.73" y="1425" as="sourcePoint" />
            <mxPoint x="-641.73" y="1445" as="targetPoint" />
            <Array as="points">
              <mxPoint x="-589.73" y="1425" />
              <mxPoint x="-589.73" y="1445" />
            </Array>
          </mxGeometry>
        </mxCell>
        <mxCell id="37B3_O0Yx8iWJ9PxHYTL-97" value="處理資料()" style="text;html=1;align=center;verticalAlign=middle;resizable=0;points=[];autosize=1;strokeColor=none;fillColor=none;" vertex="1" parent="1">
          <mxGeometry x="-596.94" y="1420" width="80" height="30" as="geometry" />
        </mxCell>
        <mxCell id="37B3_O0Yx8iWJ9PxHYTL-98" value="資料傳送()" style="html=1;verticalAlign=bottom;endArrow=block;edgeStyle=elbowEdgeStyle;elbow=vertical;curved=0;rounded=0;align=right;" edge="1" parent="1">
          <mxGeometry x="0.3333" relative="1" as="geometry">
            <mxPoint x="-640" y="1473.75" as="sourcePoint" />
            <Array as="points">
              <mxPoint x="-575.4800000000001" y="1473.75" />
            </Array>
            <mxPoint x="-490.0000000000001" y="1473.75" as="targetPoint" />
            <mxPoint as="offset" />
          </mxGeometry>
        </mxCell>
        <mxCell id="37B3_O0Yx8iWJ9PxHYTL-99" value="儲存資料()" style="html=1;verticalAlign=bottom;endArrow=block;edgeStyle=elbowEdgeStyle;elbow=horizontal;curved=0;rounded=0;align=right;" edge="1" parent="1">
          <mxGeometry x="0.3333" relative="1" as="geometry">
            <mxPoint x="-480.97" y="1483.75" as="sourcePoint" />
            <Array as="points">
              <mxPoint x="-416.45000000000016" y="1483.75" />
            </Array>
            <mxPoint x="-330.97000000000014" y="1483.75" as="targetPoint" />
            <mxPoint as="offset" />
          </mxGeometry>
        </mxCell>
        <mxCell id="37B3_O0Yx8iWJ9PxHYTL-100" value="資料儲存成功" style="html=1;verticalAlign=bottom;endArrow=none;edgeStyle=elbowEdgeStyle;elbow=vertical;curved=0;rounded=0;startArrow=open;startFill=0;endFill=0;dashed=1;" edge="1" parent="1">
          <mxGeometry x="0.0042" relative="1" as="geometry">
            <mxPoint x="-480.97000000000025" y="1513.75" as="sourcePoint" />
            <Array as="points">
              <mxPoint x="-415.97" y="1513.75" />
            </Array>
            <mxPoint x="-330.48999999999995" y="1513.75" as="targetPoint" />
            <mxPoint as="offset" />
          </mxGeometry>
        </mxCell>
        <mxCell id="37B3_O0Yx8iWJ9PxHYTL-57" value="&amp;nbsp;[資料不完整]" style="text;html=1;strokeColor=none;fillColor=none;align=left;verticalAlign=middle;whiteSpace=wrap;rounded=0;" vertex="1" parent="1">
          <mxGeometry x="-955" y="1290" width="80" height="30" as="geometry" />
        </mxCell>
        <mxCell id="37B3_O0Yx8iWJ9PxHYTL-55" value="" style="endArrow=none;html=1;rounded=0;dashed=1;dashPattern=1 4;entryX=-0.001;entryY=0.502;entryDx=0;entryDy=0;entryPerimeter=0;exitX=1.001;exitY=0.313;exitDx=0;exitDy=0;exitPerimeter=0;" edge="1" parent="1">
          <mxGeometry width="50" height="50" relative="1" as="geometry">
            <mxPoint x="-194.43688000000003" y="1410.0015" as="sourcePoint" />
            <mxPoint x="-955.5648999999999" y="1410.1910000000003" as="targetPoint" />
          </mxGeometry>
        </mxCell>
        <mxCell id="37B3_O0Yx8iWJ9PxHYTL-104" value="資料儲存完成" style="html=1;verticalAlign=bottom;endArrow=none;edgeStyle=elbowEdgeStyle;elbow=vertical;curved=0;rounded=0;startArrow=open;startFill=0;endFill=0;dashed=1;" edge="1" parent="1">
          <mxGeometry x="0.0042" relative="1" as="geometry">
            <mxPoint x="-641.4500000000003" y="1533.75" as="sourcePoint" />
            <Array as="points">
              <mxPoint x="-576.45" y="1533.75" />
            </Array>
            <mxPoint x="-490.9699999999999" y="1533.75" as="targetPoint" />
            <mxPoint as="offset" />
          </mxGeometry>
        </mxCell>
        <mxCell id="37B3_O0Yx8iWJ9PxHYTL-106" value="顯示資料儲存完成" style="html=1;verticalAlign=bottom;endArrow=none;edgeStyle=elbowEdgeStyle;elbow=horizontal;curved=0;rounded=0;startArrow=open;startFill=0;endFill=0;dashed=1;" edge="1" parent="1">
          <mxGeometry x="0.0042" relative="1" as="geometry">
            <mxPoint x="-802.4200000000003" y="1543.75" as="sourcePoint" />
            <Array as="points">
              <mxPoint x="-737.4200000000001" y="1543.75" />
            </Array>
            <mxPoint x="-651.9399999999999" y="1543.75" as="targetPoint" />
            <mxPoint as="offset" />
          </mxGeometry>
        </mxCell>
        <mxCell id="37B3_O0Yx8iWJ9PxHYTL-110" value="資料儲存完成" style="html=1;verticalAlign=bottom;endArrow=none;edgeStyle=elbowEdgeStyle;elbow=vertical;curved=0;rounded=0;startArrow=open;startFill=0;endFill=0;dashed=1;" edge="1" parent="1">
          <mxGeometry x="0.0042" relative="1" as="geometry">
            <mxPoint x="-802.4200000000003" y="1593.75" as="sourcePoint" />
            <Array as="points">
              <mxPoint x="-737.4200000000001" y="1593.75" />
            </Array>
            <mxPoint x="-651.9399999999999" y="1593.75" as="targetPoint" />
            <mxPoint as="offset" />
          </mxGeometry>
        </mxCell>
        <mxCell id="37B3_O0Yx8iWJ9PxHYTL-111" value="loop" style="shape=umlFrame;whiteSpace=wrap;html=1;pointerEvents=0;width=40;height=30;" vertex="1" parent="1">
          <mxGeometry x="-870" y="1250" width="640" height="150" as="geometry" />
        </mxCell>
        <mxCell id="37B3_O0Yx8iWJ9PxHYTL-112" value="顯示資料不完整" style="html=1;verticalAlign=bottom;endArrow=none;edgeStyle=elbowEdgeStyle;elbow=vertical;curved=0;rounded=0;startArrow=open;startFill=0;endFill=0;dashed=1;" edge="1" parent="1">
          <mxGeometry x="0.0042" relative="1" as="geometry">
            <mxPoint x="-802.4200000000003" y="1276.44" as="sourcePoint" />
            <Array as="points">
              <mxPoint x="-737.4200000000001" y="1276.44" />
            </Array>
            <mxPoint x="-651.9399999999999" y="1276.44" as="targetPoint" />
            <mxPoint as="offset" />
          </mxGeometry>
        </mxCell>
        <mxCell id="37B3_O0Yx8iWJ9PxHYTL-113" value="" style="edgeStyle=segmentEdgeStyle;endArrow=classic;html=1;curved=0;rounded=0;endSize=8;startSize=8;sourcePerimeterSpacing=0;targetPerimeterSpacing=0;" edge="1" parent="1">
          <mxGeometry width="100" relative="1" as="geometry">
            <mxPoint x="-639.73" y="1295" as="sourcePoint" />
            <mxPoint x="-641.73" y="1315" as="targetPoint" />
            <Array as="points">
              <mxPoint x="-600" y="1295" />
              <mxPoint x="-600" y="1315" />
            </Array>
          </mxGeometry>
        </mxCell>
        <mxCell id="37B3_O0Yx8iWJ9PxHYTL-114" value="重新執行爬蟲程式()" style="text;html=1;align=center;verticalAlign=middle;resizable=0;points=[];autosize=1;strokeColor=none;fillColor=none;" vertex="1" parent="1">
          <mxGeometry x="-610.97" y="1290" width="130" height="30" as="geometry" />
        </mxCell>
        <mxCell id="37B3_O0Yx8iWJ9PxHYTL-116" value="break" style="shape=umlFrame;whiteSpace=wrap;html=1;pointerEvents=0;width=40;height=30;" vertex="1" parent="1">
          <mxGeometry x="-865.97" y="1340" width="625.97" height="50" as="geometry" />
        </mxCell>
        <mxCell id="37B3_O0Yx8iWJ9PxHYTL-120" value="顯示資料完整" style="html=1;verticalAlign=bottom;endArrow=none;edgeStyle=elbowEdgeStyle;elbow=vertical;curved=0;rounded=0;startArrow=open;startFill=0;endFill=0;dashed=1;" edge="1" parent="1">
          <mxGeometry x="0.0042" relative="1" as="geometry">
            <mxPoint x="-802.4200000000003" y="1370" as="sourcePoint" />
            <Array as="points">
              <mxPoint x="-737.4200000000001" y="1370" />
            </Array>
            <mxPoint x="-651.9399999999999" y="1370" as="targetPoint" />
            <mxPoint as="offset" />
          </mxGeometry>
        </mxCell>
      </root>
    </mxGraphModel>
  </diagram>
</mxfile>
